<svg width="156" height="56" viewBox="0 0 156 56" fill="none" xmlns="http://www.w3.org/2000/svg">
<rect x="96.1504" width="58.2474" height="55.1963" rx="0.277369" fill="#2BDA6E"/>
<path d="M2.4837 27.7664V9.51023H6.39573V24.7411H14.2719V27.7664H2.4837ZM21.7402 28.0793C20.6449 28.0793 19.7321 27.9055 19.0018 27.5577C18.289 27.21 17.7587 26.7405 17.4109 26.1494C17.0806 25.5408 16.9154 24.8715 16.9154 24.1412C16.9154 23.3588 17.1067 22.672 17.4892 22.0809C17.8891 21.4723 18.5063 20.9942 19.3409 20.6465C20.1754 20.2813 21.2273 20.0988 22.4966 20.0988H25.6784C25.6784 19.5076 25.6001 19.0208 25.4436 18.6383C25.3045 18.2558 25.0698 17.9689 24.7395 17.7776C24.4091 17.5864 23.9571 17.4908 23.3833 17.4908C22.7748 17.4908 22.2618 17.6125 21.8446 17.8559C21.4273 18.0993 21.1665 18.4818 21.0622 19.0034H17.3066C17.3935 18.0645 17.6978 17.2474 18.2194 16.5519C18.7584 15.8564 19.4713 15.3087 20.358 14.9088C21.2447 14.5089 22.2618 14.309 23.4094 14.309C24.6612 14.309 25.7479 14.5176 26.6694 14.9349C27.5909 15.3348 28.3038 15.926 28.808 16.7084C29.3296 17.4908 29.5904 18.4644 29.5904 19.6293V27.7664H26.3304L25.8609 25.8625C25.6697 26.1929 25.4436 26.4971 25.1828 26.7753C24.922 27.0361 24.6178 27.2708 24.27 27.4795C23.9223 27.6707 23.5398 27.8185 23.1225 27.9228C22.7052 28.0272 22.2445 28.0793 21.7402 28.0793ZM22.7052 25.1062C23.1225 25.1062 23.4876 25.0366 23.8006 24.8975C24.1135 24.7584 24.383 24.5672 24.6091 24.3238C24.8351 24.0804 25.0177 23.8022 25.1567 23.4892C25.3132 23.1589 25.4262 22.8024 25.4958 22.4199V22.3938H22.966C22.5313 22.3938 22.1662 22.4547 21.8706 22.5764C21.5925 22.6807 21.3838 22.8372 21.2447 23.0458C21.1056 23.2545 21.0361 23.4979 21.0361 23.7761C21.0361 24.0717 21.1056 24.3238 21.2447 24.5324C21.4012 24.7237 21.6011 24.8715 21.8446 24.9758C22.1054 25.0627 22.3922 25.1062 22.7052 25.1062ZM32.8414 27.7664V14.6219H36.2579L36.5709 16.7344C36.9708 16.0042 37.5359 15.4217 38.2661 14.9871C38.9964 14.535 39.8831 14.309 40.9263 14.309C42.0217 14.309 42.9432 14.5437 43.6908 15.0132C44.4384 15.4826 45.0035 16.1607 45.386 17.0474C45.7859 17.9167 45.9858 18.986 45.9858 20.2553V27.7664H42.0999V20.6204C42.0999 19.6641 41.8913 18.9252 41.474 18.4036C41.0741 17.8646 40.4308 17.5951 39.544 17.5951C39.0224 17.5951 38.5443 17.7255 38.1096 17.9863C37.6923 18.2297 37.362 18.5861 37.1186 19.0556C36.8752 19.525 36.7535 20.0901 36.7535 20.7508V27.7664H32.8414ZM55.0854 28.0793C53.9205 28.0793 52.8599 27.7837 51.9036 27.1926C50.9647 26.6014 50.2171 25.793 49.6607 24.7671C49.1217 23.7239 48.8522 22.5416 48.8522 21.2202C48.8522 19.8815 49.1304 18.6991 49.6868 17.6733C50.2432 16.6301 50.9995 15.8129 51.9558 15.2218C52.9294 14.6133 54.0074 14.309 55.1897 14.309C56.0938 14.309 56.8849 14.4742 57.563 14.8045C58.2411 15.1175 58.7975 15.5782 59.2321 16.1868V8.98863H63.1442V27.7664H59.6755L59.2321 26.0711C58.9713 26.4363 58.6497 26.7753 58.2672 27.0883C57.902 27.3838 57.4587 27.6186 56.9371 27.7924C56.4155 27.9837 55.7982 28.0793 55.0854 28.0793ZM56.1025 24.6628C56.7458 24.6628 57.3109 24.515 57.7977 24.2195C58.3019 23.9239 58.6844 23.5153 58.9452 22.9937C59.2234 22.4721 59.3625 21.8722 59.3625 21.1942C59.3625 20.5161 59.2234 19.9162 58.9452 19.3946C58.6844 18.873 58.3019 18.4644 57.7977 18.1689C57.3109 17.8733 56.7458 17.7255 56.1025 17.7255C55.4766 17.7255 54.9115 17.8733 54.4073 18.1689C53.9205 18.4644 53.538 18.873 53.2598 19.3946C52.9816 19.9162 52.8425 20.5074 52.8425 21.1681C52.8425 21.8462 52.9816 22.4547 53.2598 22.9937C53.538 23.5153 53.9205 23.9239 54.4073 24.2195C54.9115 24.515 55.4766 24.6628 56.1025 24.6628ZM66.589 27.7664V14.6219H70.501V27.7664H66.589ZM68.545 13.1093C67.8495 13.1093 67.2844 12.9093 66.8498 12.5095C66.4151 12.1096 66.1978 11.6053 66.1978 10.9968C66.1978 10.3709 66.4151 9.85797 66.8498 9.45807C67.2844 9.05818 67.8495 8.85823 68.545 8.85823C69.2578 8.85823 69.8316 9.05818 70.2663 9.45807C70.7183 9.85797 70.9444 10.3709 70.9444 10.9968C70.9444 11.6053 70.7183 12.1096 70.2663 12.5095C69.8316 12.9093 69.2578 13.1093 68.545 13.1093ZM73.9483 27.7664V14.6219H77.3648L77.6777 16.7344C78.0776 16.0042 78.6427 15.4217 79.373 14.9871C80.1032 14.535 80.9899 14.309 82.0331 14.309C83.1285 14.309 84.05 14.5437 84.7976 15.0132C85.5453 15.4826 86.1103 16.1607 86.4928 17.0474C86.8927 17.9167 87.0927 18.986 87.0927 20.2553V27.7664H83.2067V20.6204C83.2067 19.6641 82.9981 18.9252 82.5808 18.4036C82.1809 17.8646 81.5376 17.5951 80.6509 17.5951C80.1293 17.5951 79.6511 17.7255 79.2165 17.9863C78.7992 18.2297 78.4688 18.5861 78.2254 19.0556C77.982 19.525 77.8603 20.0901 77.8603 20.7508V27.7664H73.9483ZM96.1401 33.817C94.8534 33.817 93.7407 33.6605 92.8018 33.3475C91.8629 33.0519 91.1327 32.5999 90.6111 31.9913C90.1068 31.3828 89.8547 30.6178 89.8547 29.6963C89.8547 29.0356 90.0286 28.4184 90.3763 27.8446C90.7415 27.2708 91.2544 26.7666 91.9151 26.3319C92.5758 25.8799 93.3669 25.5061 94.2884 25.2105L95.5924 27.1926C94.8274 27.4186 94.2536 27.7142 93.8711 28.0793C93.506 28.4444 93.3234 28.853 93.3234 29.3051C93.3234 29.6528 93.4451 29.9484 93.6885 30.1918C93.9319 30.4352 94.2623 30.6178 94.6796 30.7395C95.1142 30.8612 95.5924 30.9221 96.114 30.9221C96.6182 30.9221 97.0529 30.8612 97.418 30.7395C97.8005 30.6178 98.0961 30.4352 98.3047 30.1918C98.5307 29.9658 98.6438 29.6876 98.6438 29.3572C98.6438 28.9226 98.496 28.5748 98.2004 28.314C97.9048 28.0532 97.2963 27.8881 96.3748 27.8185C95.5228 27.749 94.7491 27.6533 94.0536 27.5316C93.3756 27.3925 92.767 27.2274 92.228 27.0361C91.7064 26.8449 91.2544 26.6362 90.8719 26.4102C90.4894 26.1842 90.1938 25.9581 89.9851 25.7321V25.1323L92.854 21.9766L95.5402 22.8111L92.0716 26.3319L93.2712 24.3499C93.4451 24.4542 93.6277 24.5585 93.8189 24.6628C94.0102 24.7498 94.2449 24.828 94.5231 24.8975C94.8013 24.9671 95.149 25.0366 95.5663 25.1062C95.9836 25.1583 96.5226 25.2192 97.1833 25.2887C98.3134 25.3931 99.2436 25.6104 99.9738 25.9407C100.721 26.2537 101.269 26.6884 101.617 27.2448C101.982 27.8011 102.165 28.4792 102.165 29.279C102.165 30.0614 101.947 30.8004 101.513 31.4958C101.078 32.1913 100.417 32.7477 99.5305 33.165C98.6438 33.5996 97.5136 33.817 96.1401 33.817ZM96.1661 23.9587C95.0708 23.9587 94.1232 23.7413 93.3234 23.3066C92.5236 22.872 91.9064 22.2982 91.4717 21.5854C91.037 20.8551 90.8197 20.0379 90.8197 19.1338C90.8197 18.2471 91.037 17.4473 91.4717 16.7344C91.9064 16.0042 92.5236 15.4217 93.3234 14.9871C94.1232 14.535 95.0708 14.309 96.1661 14.309C97.2789 14.309 98.2352 14.535 99.035 14.9871C99.8348 15.4217 100.443 16.0042 100.861 16.7344C101.278 17.4473 101.486 18.2471 101.486 19.1338C101.486 20.0379 101.278 20.8551 100.861 21.5854C100.443 22.2982 99.8348 22.872 99.035 23.3066C98.2352 23.7413 97.2789 23.9587 96.1661 23.9587ZM96.1661 21.0116C96.7573 21.0116 97.2441 20.8551 97.6266 20.5421C98.0091 20.2292 98.2004 19.7684 98.2004 19.1599C98.2004 18.5514 98.0091 18.0906 97.6266 17.7776C97.2441 17.4647 96.7573 17.3082 96.1661 17.3082C95.575 17.3082 95.0795 17.4647 94.6796 17.7776C94.2971 18.0906 94.1058 18.5514 94.1058 19.1599C94.1058 19.7684 94.2971 20.2292 94.6796 20.5421C95.0795 20.8551 95.575 21.0116 96.1661 21.0116ZM98.3569 17.3082L97.7831 14.6219H103.234V16.8388L98.3569 17.3082Z" fill="white"/>
<path d="M1.92706 48.8464V30.5903H9.72503C10.9943 30.5903 12.0636 30.7903 12.9329 31.1902C13.8022 31.5727 14.4629 32.1203 14.915 32.8332C15.3844 33.5287 15.6192 34.3545 15.6192 35.3108C15.6192 36.2323 15.4192 37.006 15.0193 37.632C14.6194 38.2579 14.0891 38.736 13.4284 39.0664C12.7851 39.3967 12.0722 39.5967 11.2898 39.6662L11.7071 39.3533C12.5591 39.388 13.3067 39.6141 13.95 40.0313C14.5933 40.4486 15.0975 40.9963 15.4627 41.6744C15.8452 42.3351 16.0364 43.0653 16.0364 43.8651C16.0364 44.8562 15.8017 45.7255 15.3323 46.4731C14.8628 47.2208 14.176 47.8032 13.2719 48.2205C12.3678 48.6378 11.2725 48.8464 9.98583 48.8464H1.92706ZM5.83909 45.6647H9.33383C10.2032 45.6647 10.8726 45.4734 11.342 45.0909C11.8288 44.691 12.0722 44.1172 12.0722 43.3696C12.0722 42.622 11.8201 42.0395 11.3159 41.6222C10.8291 41.2049 10.151 40.9963 9.28167 40.9963H5.83909V45.6647ZM5.83909 38.1014H9.04695C9.88151 38.1014 10.5161 37.9101 10.9508 37.5276C11.4029 37.1451 11.6289 36.6061 11.6289 35.9107C11.6289 35.2152 11.4029 34.6762 10.9508 34.2937C10.5161 33.8938 9.87282 33.6939 9.02087 33.6939H5.83909V38.1014ZM23.7415 49.1594C22.6461 49.1594 21.7159 48.9334 20.9509 48.4813C20.2033 48.0293 19.6295 47.3686 19.2296 46.4992C18.8471 45.6125 18.6559 44.5345 18.6559 43.2653V35.702H22.5679V42.8741C22.5679 43.8477 22.7678 44.5954 23.1677 45.117C23.5676 45.6212 24.2109 45.8733 25.0977 45.8733C25.6367 45.8733 26.1148 45.7516 26.5321 45.5082C26.9667 45.2648 27.2971 44.9083 27.5231 44.4389C27.7665 43.9694 27.8882 43.3957 27.8882 42.7176V35.702H31.8003V48.8464H28.3838L28.0708 46.76C27.6883 47.4729 27.1319 48.0553 26.4017 48.5074C25.6714 48.9421 24.7847 49.1594 23.7415 49.1594ZM35.2404 48.8464V35.702H39.1524V48.8464H35.2404ZM37.1964 34.1894C36.501 34.1894 35.9359 33.9894 35.5012 33.5895C35.0665 33.1896 34.8492 32.6854 34.8492 32.0769C34.8492 31.451 35.0665 30.938 35.5012 30.5382C35.9359 30.1383 36.501 29.9383 37.1964 29.9383C37.9093 29.9383 38.483 30.1383 38.9177 30.5382C39.3698 30.938 39.5958 31.451 39.5958 32.0769C39.5958 32.6854 39.3698 33.1896 38.9177 33.5895C38.483 33.9894 37.9093 34.1894 37.1964 34.1894ZM42.5997 48.8464V30.0687H46.5117V48.8464H42.5997ZM55.7512 49.1594C54.5863 49.1594 53.5257 48.8638 52.5695 48.2727C51.6306 47.6815 50.8829 46.873 50.3266 45.8472C49.7876 44.804 49.5181 43.6217 49.5181 42.3003C49.5181 40.9615 49.7963 39.7792 50.3527 38.7534C50.909 37.7102 51.6654 36.893 52.6216 36.3019C53.5953 35.6933 54.6733 35.3891 55.8556 35.3891C56.7597 35.3891 57.5508 35.5542 58.2289 35.8846C58.9069 36.1975 59.4633 36.6583 59.898 37.2668V30.0687H63.81V48.8464H60.3414L59.898 47.1512C59.6372 47.5163 59.3155 47.8554 58.933 48.1684C58.5679 48.4639 58.1245 48.6986 57.6029 48.8725C57.0813 49.0638 56.4641 49.1594 55.7512 49.1594ZM56.7684 45.7429C57.4117 45.7429 57.9768 45.5951 58.4636 45.2995C58.9678 45.004 59.3503 44.5954 59.6111 44.0738C59.8893 43.5522 60.0284 42.9523 60.0284 42.2742C60.0284 41.5961 59.8893 40.9963 59.6111 40.4747C59.3503 39.9531 58.9678 39.5445 58.4636 39.2489C57.9768 38.9534 57.4117 38.8056 56.7684 38.8056C56.1425 38.8056 55.5774 38.9534 55.0732 39.2489C54.5863 39.5445 54.2038 39.9531 53.9256 40.4747C53.6474 40.9963 53.5084 41.5875 53.5084 42.2482C53.5084 42.9262 53.6474 43.5348 53.9256 44.0738C54.2038 44.5954 54.5863 45.004 55.0732 45.2995C55.5774 45.5951 56.1425 45.7429 56.7684 45.7429ZM73.6706 49.1594C72.3144 49.1594 71.1234 48.8812 70.0976 48.3248C69.0718 47.7511 68.2633 46.96 67.6721 45.9515C67.0984 44.9257 66.8115 43.7521 66.8115 42.4307C66.8115 41.0745 67.0984 39.8662 67.6721 38.8056C68.2459 37.745 69.0457 36.9104 70.0715 36.3019C71.0973 35.6933 72.2883 35.3891 73.6445 35.3891C74.9659 35.3891 76.1221 35.6759 77.1132 36.2497C78.1042 36.8235 78.8779 37.6059 79.4343 38.5969C80.0081 39.5706 80.2949 40.7007 80.2949 41.9873C80.2949 42.1612 80.2862 42.3612 80.2689 42.5872C80.2689 42.7958 80.2515 43.0132 80.2167 43.2392H69.6021V40.9702H76.3047C76.2699 40.24 76.0004 39.6575 75.4962 39.2228C75.0094 38.7708 74.4008 38.5448 73.6706 38.5448C73.1142 38.5448 72.61 38.6752 72.1579 38.936C71.7059 39.1968 71.3407 39.588 71.0626 40.1096C70.8018 40.6312 70.6714 41.2919 70.6714 42.0917V42.8741C70.6714 43.4826 70.7844 44.0216 71.0104 44.491C71.2538 44.9605 71.5929 45.3256 72.0275 45.5864C72.4796 45.8472 73.0099 45.9776 73.6184 45.9776C74.1922 45.9776 74.6616 45.8646 75.0267 45.6386C75.4093 45.3952 75.7048 45.0909 75.9135 44.7258H79.9037C79.6603 45.5603 79.243 46.3167 78.6519 46.9947C78.0607 47.6554 77.3392 48.1857 76.4872 48.5856C75.6353 48.9681 74.6964 49.1594 73.6706 49.1594ZM83.1717 48.8464V35.702H86.6404L87.0055 38.1014C87.3532 37.545 87.7618 37.0669 88.2313 36.667C88.7007 36.2671 89.2397 35.9541 89.8482 35.7281C90.4742 35.5021 91.1435 35.3891 91.8564 35.3891V39.5358H90.5524C90.0308 39.5358 89.5527 39.5967 89.118 39.7184C88.7007 39.8227 88.3356 40.0053 88.0226 40.2661C87.727 40.5269 87.4923 40.8833 87.3185 41.3353C87.162 41.77 87.0837 42.3177 87.0837 42.9784V48.8464H83.1717ZM99.6002 49.1594C98.3657 49.1594 97.2964 48.9681 96.3923 48.5856C95.5056 48.1857 94.8014 47.6467 94.2798 46.9687C93.7756 46.2906 93.4887 45.5256 93.4192 44.6736H97.3051C97.3747 44.9692 97.4964 45.2387 97.6702 45.4821C97.8615 45.7081 98.1136 45.8907 98.4266 46.0298C98.7569 46.1515 99.122 46.2123 99.5219 46.2123C99.9566 46.2123 100.304 46.1602 100.565 46.0559C100.843 45.9341 101.052 45.7777 101.191 45.5864C101.33 45.3952 101.4 45.1952 101.4 44.9866C101.4 44.6562 101.295 44.4041 101.087 44.2302C100.895 44.0564 100.609 43.9173 100.226 43.813C99.8436 43.6913 99.3828 43.5782 98.8439 43.4739C98.2179 43.3348 97.592 43.1783 96.9661 43.0045C96.3575 42.8132 95.8099 42.5785 95.323 42.3003C94.8536 42.0221 94.4711 41.6657 94.1755 41.231C93.8973 40.779 93.7582 40.2313 93.7582 39.588C93.7582 38.8056 93.9756 38.1014 94.4102 37.4755C94.8449 36.8322 95.4708 36.3279 96.288 35.9628C97.1052 35.5803 98.0962 35.3891 99.2611 35.3891C100.913 35.3891 102.208 35.7542 103.147 36.4844C104.086 37.2147 104.642 38.197 104.816 39.4315H101.165C101.061 39.0838 100.843 38.823 100.513 38.6491C100.183 38.4578 99.7654 38.3622 99.2611 38.3622C98.6874 38.3622 98.2527 38.4578 97.9571 38.6491C97.6616 38.8403 97.5138 39.0924 97.5138 39.4054C97.5138 39.6141 97.6094 39.8053 97.8006 39.9792C98.0093 40.1357 98.3049 40.2748 98.6874 40.3965C99.0699 40.5182 99.5393 40.6399 100.096 40.7616C101.156 40.9876 102.069 41.231 102.834 41.4918C103.617 41.7526 104.225 42.1351 104.66 42.6394C105.094 43.1262 105.303 43.839 105.286 44.7779C105.303 45.6299 105.077 46.3862 104.608 47.0469C104.156 47.7076 103.504 48.2292 102.652 48.6117C101.8 48.9768 100.782 49.1594 99.6002 49.1594ZM108.26 48.8464V30.5903H112.172V45.8211H120.048V48.8464H108.26ZM127.516 49.1594C126.421 49.1594 125.508 48.9855 124.778 48.6378C124.065 48.2901 123.535 47.8206 123.187 47.2295C122.857 46.6209 122.692 45.9515 122.692 45.2213C122.692 44.4389 122.883 43.7521 123.265 43.161C123.665 42.5524 124.282 42.0743 125.117 41.7265C125.952 41.3614 127.003 41.1789 128.273 41.1789H131.454C131.454 40.5877 131.376 40.1009 131.22 39.7184C131.081 39.3359 130.846 39.049 130.516 38.8577C130.185 38.6665 129.733 38.5708 129.159 38.5708C128.551 38.5708 128.038 38.6926 127.621 38.936C127.203 39.1794 126.943 39.5619 126.838 40.0835H123.083C123.17 39.1446 123.474 38.3274 123.996 37.632C124.535 36.9365 125.247 36.3888 126.134 35.9889C127.021 35.589 128.038 35.3891 129.185 35.3891C130.437 35.3891 131.524 35.5977 132.446 36.015C133.367 36.4149 134.08 37.006 134.584 37.7884C135.106 38.5708 135.366 39.5445 135.366 40.7094V48.8464H132.106L131.637 46.9426C131.446 47.2729 131.22 47.5772 130.959 47.8554C130.698 48.1162 130.394 48.3509 130.046 48.5596C129.698 48.7508 129.316 48.8986 128.899 49.0029C128.481 49.1072 128.021 49.1594 127.516 49.1594ZM128.481 46.1863C128.899 46.1863 129.264 46.1167 129.577 45.9776C129.89 45.8385 130.159 45.6473 130.385 45.4039C130.611 45.1604 130.794 44.8822 130.933 44.5693C131.089 44.2389 131.202 43.8825 131.272 43.5V43.4739H128.742C128.307 43.4739 127.942 43.5348 127.647 43.6565C127.369 43.7608 127.16 43.9173 127.021 44.1259C126.882 44.3346 126.812 44.578 126.812 44.8562C126.812 45.1517 126.882 45.4039 127.021 45.6125C127.177 45.8037 127.377 45.9515 127.621 46.0559C127.881 46.1428 128.168 46.1863 128.481 46.1863ZM146.624 49.1594C145.981 49.1594 145.398 49.0812 144.877 48.9247C144.373 48.7682 143.921 48.5509 143.521 48.2727C143.138 47.9771 142.808 47.6467 142.53 47.2816L142.086 48.8464H138.618V30.0687H142.53V37.4233C142.947 36.8322 143.486 36.3453 144.147 35.9628C144.807 35.5803 145.624 35.3891 146.598 35.3891C147.798 35.3891 148.867 35.6933 149.806 36.3019C150.762 36.893 151.519 37.7102 152.075 38.7534C152.631 39.7792 152.909 40.9615 152.909 42.3003C152.909 43.6043 152.631 44.7779 152.075 45.8211C151.519 46.8643 150.771 47.6815 149.832 48.2727C148.893 48.8638 147.824 49.1594 146.624 49.1594ZM145.659 45.7429C146.285 45.7429 146.841 45.5951 147.328 45.2995C147.833 45.004 148.224 44.6041 148.502 44.0998C148.78 43.5782 148.919 42.9784 148.919 42.3003C148.919 41.6222 148.78 41.0224 148.502 40.5008C148.224 39.9618 147.833 39.5445 147.328 39.2489C146.841 38.9534 146.285 38.8056 145.659 38.8056C145.016 38.8056 144.442 38.962 143.938 39.275C143.451 39.5706 143.069 39.9792 142.79 40.5008C142.512 41.005 142.373 41.6048 142.373 42.3003C142.373 42.961 142.512 43.5522 142.79 44.0738C143.069 44.5954 143.451 45.004 143.938 45.2995C144.442 45.5951 145.016 45.7429 145.659 45.7429Z" fill="white"/>
</svg>
