<svg width="267" height="184" viewBox="0 0 267 184" fill="none" xmlns="http://www.w3.org/2000/svg">
<rect x="0.484375" y="0.827148" width="253.832" height="170.253" rx="49.5281" fill="#4F39F6"/>
<path d="M92.5781 54.998H97.5836C99.4254 54.998 101.032 56.2368 101.509 58.0136L102.892 63.2032M102.892 63.2032C123.01 62.6394 143.109 64.8758 162.611 69.8482C159.635 78.7107 156.099 87.3203 152.051 95.6266H111.538M102.892 63.2032L111.538 95.6266M111.538 95.6266C108.665 95.6266 105.909 96.768 103.877 98.7999C101.845 100.832 100.704 103.587 100.704 106.461H157.584M106.121 117.295C106.121 118.013 105.836 118.702 105.328 119.21C104.82 119.718 104.131 120.004 103.412 120.004C102.694 120.004 102.005 119.718 101.497 119.21C100.989 118.702 100.704 118.013 100.704 117.295C100.704 116.577 100.989 115.888 101.497 115.38C102.005 114.872 102.694 114.587 103.412 114.587C104.131 114.587 104.82 114.872 105.328 115.38C105.836 115.888 106.121 116.577 106.121 117.295ZM152.167 117.295C152.167 118.013 151.881 118.702 151.373 119.21C150.865 119.718 150.176 120.004 149.458 120.004C148.74 120.004 148.051 119.718 147.543 119.21C147.035 118.702 146.75 118.013 146.75 117.295C146.75 116.577 147.035 115.888 147.543 115.38C148.051 114.872 148.74 114.587 149.458 114.587C150.176 114.587 150.865 114.872 151.373 115.38C151.881 115.888 152.167 116.577 152.167 117.295Z" stroke="#FFB200" stroke-width="8.14119" stroke-linecap="round" stroke-linejoin="round"/>
<circle cx="245.028" cy="161.794" r="21.6686" fill="#00AE06"/>
</svg>
